<svg id="Layer_1" data-name="Layer 1" xmlns="http://www.w3.org/2000/svg" viewBox="0 0 203.5 181"><defs><style>.cls-1{fill:#262424;}.cls-2{fill:#fff;}.cls-3{fill:none;stroke:#fff;stroke-miterlimit:10;}.cls-4{isolation:isolate;}.cls-5{fill:#cc2128;}</style></defs><title>nybo_logo</title><g id="Lag_2" data-name="Lag 2"><g id="Layer_1-2" data-name="Layer 1"><rect class="cls-1" width="203.5" height="181"/><rect class="cls-2" x="3" y="132.57" width="196.86" height="44.93"/><rect class="cls-3" x="3" y="2.5" width="196.86" height="175"/><g class="cls-4"><path class="cls-2" d="M26.91,14.85V71.28H23.18V14.85H6.37V11.48H43.71v3.37Z"/><path class="cls-2" d="M55.74,44.48v26.8H52V11.48h3.73V41.12H83.53V11.48h3.74v59.8H83.53V44.48Z"/><path class="cls-2" d="M132.9,11.48v3.37H103.45V39.7H132.9v3.36H103.45V67.92H132.9v3.36H99.71V11.48Z"/><path class="cls-2" d="M148.87,11.48v59.8h-3.73V11.48Z"/><path class="cls-2" d="M178.66,38.17a29,29,0,0,1-11.2-5.83,11.75,11.75,0,0,1,0-17.85,14.29,14.29,0,0,1,9.95-3.72,14.48,14.48,0,0,1,10,3.7,10.57,10.57,0,0,1,3.15,4.45l-3.36,1.2a9.21,9.21,0,0,0-2.45-3.37,11.22,11.22,0,0,0-14.6,0,8.68,8.68,0,0,0,0,13.18,28.05,28.05,0,0,0,7.8,4.59,33.75,33.75,0,0,1,13.4,7.22,16.14,16.14,0,0,1,5.77,12.48,16.33,16.33,0,0,1-5.77,12.56,21.13,21.13,0,0,1-27.79,0A16.43,16.43,0,0,1,158,57.12L161.53,56a13.3,13.3,0,0,0,4.6,8.48,17.25,17.25,0,0,0,22.61,0,13.4,13.4,0,0,0,0-20.37A31,31,0,0,0,178.66,38.17Z"/></g><g class="cls-4"><path class="cls-2" d="M29.31,132.57,17.88,103.86a76.93,76.93,0,0,1,2,16.5v12.21H6.23V93.23h19l11.88,28.83A68.05,68.05,0,0,1,35,105.84V93.23H48.7v39.34Z"/><path class="cls-2" d="M83,132.57H67.49V118.1L50.81,93.23H67.72l7.74,16,7.82-16H99.67L83,118Z"/><path class="cls-2" d="M144.17,120.93c0,9.32-10.3,11.64-24.06,11.64H101.77V93.23h16.31c14.66,0,23.91,2.49,23.91,10.18,0,5.08-4.81,7.4-9.47,8.3C138.23,112.62,144.17,114.77,144.17,120.93Zm-26.91-12.49h2.63c4.73,0,6.39-1.08,6.39-3.85,0-2.31-1.81-3.39-6.77-3.39h-2.25Zm11,11.7c0-3.06-2.55-4.36-7.36-4.36h-3.61v8.6h3C125,124.38,128.23,123.64,128.23,120.14Z"/><path class="cls-2" d="M195.66,112.84c0,12.78-8.72,20.86-24.43,20.86s-24.43-7.8-24.43-20.86c0-12.77,8.72-20.74,24.43-20.74S195.66,99.79,195.66,112.84Zm-32.77,0c0,9.1,2.48,12.61,8.34,12.61,6,0,8.34-3.51,8.34-12.61s-2.48-12.49-8.34-12.49S162.89,103.75,162.89,112.84Z"/></g><g class="cls-4"><path class="cls-1" d="M11.69,147.61a6.25,6.25,0,0,1,2.94.7,5.74,5.74,0,0,1,2.12,1.83,5.13,5.13,0,0,1,.65,1.33,4.71,4.71,0,0,1,.24,1.5,4.65,4.65,0,0,1-.24,1.49,5.19,5.19,0,0,1-.65,1.34,5.93,5.93,0,0,1-2.12,1.83,6.37,6.37,0,0,1-2.94.7H6.34v4.2H5.21V147.61h6.48Zm0,9.7A5,5,0,0,0,15.1,156a4,4,0,0,0,0-6.14,4.92,4.92,0,0,0-3.41-1.27H6.34v8.68h5.35Z"/><path class="cls-1" d="M23.19,147.61v10.72H33.36V147.61h1.13v14.92H33.36v-3.17H23.19v3.17H22.06V147.61Z"/><path class="cls-1" d="M47.2,147.61a8.69,8.69,0,0,1,2.3.3,8.27,8.27,0,0,1,2.06.81,8,8,0,0,1,2.83,2.67,6.78,6.78,0,0,1,.75,5.76,6.75,6.75,0,0,1-.9,1.85,7.87,7.87,0,0,1-3,2.55,9,9,0,0,1-8.16,0,7.83,7.83,0,0,1-3-2.55,6.78,6.78,0,0,1-.91-1.85,6.58,6.58,0,0,1-.33-2.09,6.5,6.5,0,0,1,.33-2.07,6.84,6.84,0,0,1,.91-1.86,8,8,0,0,1,3-2.55A8.66,8.66,0,0,1,47.2,147.61Zm0,13.9a7.34,7.34,0,0,0,2-.26,7.71,7.71,0,0,0,1.77-.71,6.68,6.68,0,0,0,2.46-2.29,5.84,5.84,0,0,0,.64-5,6.22,6.22,0,0,0-.77-1.6,7,7,0,0,0-2.57-2.21,7.4,7.4,0,0,0-3.52-.83,7.7,7.7,0,0,0-2,.25,7.41,7.41,0,0,0-1.79.7A6.87,6.87,0,0,0,41,151.89a5.71,5.71,0,0,0-.93,3.17,5.37,5.37,0,0,0,.29,1.79,5.62,5.62,0,0,0,.77,1.62,7,7,0,0,0,2.54,2.21A7.74,7.74,0,0,0,47.2,161.51Z"/><path class="cls-1" d="M72.32,148.63H66.69v13.9H65.54v-13.9H59.9v-1H72.32Z"/><path class="cls-1" d="M85,147.61a8.74,8.74,0,0,1,2.3.3,8.42,8.42,0,0,1,2.06.81,8,8,0,0,1,2.83,2.67,6.78,6.78,0,0,1,.75,5.76,6.78,6.78,0,0,1-.91,1.85,7.83,7.83,0,0,1-3,2.55,9,9,0,0,1-8.16,0A7.76,7.76,0,0,1,78,159a6.78,6.78,0,0,1-.91-1.85,6.58,6.58,0,0,1-.33-2.09,6.5,6.5,0,0,1,.33-2.07,6.84,6.84,0,0,1,.91-1.86,7.93,7.93,0,0,1,3-2.55A8.66,8.66,0,0,1,85,147.61Zm0,13.9a7.4,7.4,0,0,0,2-.26,8.09,8.09,0,0,0,1.77-.71,6.65,6.65,0,0,0,2.45-2.29,5.91,5.91,0,0,0,.65-5,5.94,5.94,0,0,0-.78-1.6,7,7,0,0,0-2.56-2.21,7.46,7.46,0,0,0-3.52-.83,7.64,7.64,0,0,0-2,.25,7.25,7.25,0,0,0-1.79.7,6.82,6.82,0,0,0-2.46,2.31,5.78,5.78,0,0,0-.92,3.17,5.63,5.63,0,0,0,.28,1.79,5.92,5.92,0,0,0,.78,1.62,7,7,0,0,0,2.54,2.21A7.71,7.71,0,0,0,85,161.51Z"/><path class="cls-1" d="M110.18,155.06h4.12a6.32,6.32,0,0,1-.34,2.09,6.48,6.48,0,0,1-.9,1.85,7.87,7.87,0,0,1-3,2.55,8.46,8.46,0,0,1-4.06,1,8.86,8.86,0,0,1-2.33-.3,8.37,8.37,0,0,1-2-.82,7.72,7.72,0,0,1-2.83-2.67,6.72,6.72,0,0,1-.76-5.75,6.84,6.84,0,0,1,.91-1.86,8.09,8.09,0,0,1,3-2.55,8.7,8.7,0,0,1,4.1-1,8.88,8.88,0,0,1,3.22.58,8.34,8.34,0,0,1,2.63,1.61l-.19.18-.6.54a7.1,7.1,0,0,0-2.28-1.38,7.92,7.92,0,0,0-4.77-.26,7.49,7.49,0,0,0-1.8.7,6.87,6.87,0,0,0-2.45,2.31,5.71,5.71,0,0,0-.93,3.17,5.64,5.64,0,0,0,.29,1.79,6.25,6.25,0,0,0,.79,1.62,6.81,6.81,0,0,0,2.55,2.21,8,8,0,0,0,5.33.63,7.49,7.49,0,0,0,1.63-.59,6.62,6.62,0,0,0,2.39-1.92,6,6,0,0,0,1.24-2.7h-2.9Z"/><path class="cls-1" d="M131.15,153a4.66,4.66,0,0,1-.25,1.49,5.16,5.16,0,0,1-.64,1.34,6,6,0,0,1-2.12,1.83,6.37,6.37,0,0,1-2.94.7h-.27q.69,1.41,2.08,4.2h-1.26q-.69-1.4-2.1-4.2h-3.8v4.2h-1.13V147.61h6.48a6.51,6.51,0,0,1,1.66.2,6.21,6.21,0,0,1,1.48.6,5.64,5.64,0,0,1,2,1.91A4.8,4.8,0,0,1,131.15,153Zm-11.3,4.34h5.35a5,5,0,0,0,3.4-1.27,4,4,0,0,0,0-6.14,4.9,4.9,0,0,0-3.4-1.27h-5.35v8.68Z"/><path class="cls-1" d="M141.78,147.61q2.08,5,6.22,14.92h-1.13c-.3-.7-.74-1.76-1.33-3.17H138c-.29.71-.73,1.76-1.32,3.17h-1.13L141.21,149l.2-.43C141.5,148.33,141.62,148,141.78,147.61Zm-3.34,10.72h6.68q-1.11-2.67-3.34-8Q140.67,153,138.44,158.33Z"/><path class="cls-1" d="M158.9,147.61a6.25,6.25,0,0,1,2.94.7,5.82,5.82,0,0,1,2.12,1.83,4.8,4.8,0,0,1,.64,1.33,4.46,4.46,0,0,1,.25,1.5,4.4,4.4,0,0,1-.25,1.49,4.86,4.86,0,0,1-.64,1.34,6,6,0,0,1-2.12,1.83,6.37,6.37,0,0,1-2.94.7h-5.35v4.2h-1.13V147.61h6.48Zm0,9.7a5,5,0,0,0,3.4-1.27,4,4,0,0,0,0-6.14,4.9,4.9,0,0,0-3.4-1.27h-5.35v8.68h5.35Z"/><path class="cls-1" d="M170.4,147.61v10.72h10.17V147.61h1.13v14.92h-1.13v-3.17H170.4v3.17h-1.13V147.61Z"/><path class="cls-1" d="M192.33,157.15l5-9.54h1.17q-1.43,2.69-5.64,10.72v4.2h-1.15v-4.2l-5.64-10.72h1.17Z"/></g><rect class="cls-5" x="3.32" y="79.69" width="196.86" height="4.12"/></g></g></svg>